# xmcd
#
# Track frame offsets: 
#        150
#        36399
#        57451
#        71957
#        91435
#        105143
#        135230
#        160900
#        167363
#        193618
#        219208
#        233054
#
# Disc length: 3500 seconds
#
# Revision: 0
# Processed by: cddbd v1.5.2PL0 Copyright (c) Steve Scherf et al.
# Submitted via: ExactAudioCopy v0.99pb5
#
DISCID=9a0daa0c
DTITLE=In-Quest - Made Out Of Negative Matter
DYEAR=2009
DGENRE=Christian Rap
TTITLE0=Video Data
TTITLE1=Ingition Sequence
TTITLE2=Mind Over Matter
TTITLE3=Asynchronous Transmission
TTITLE4=Walk of a Million Mouths
TTITLE5=Thy Subsonic Collapse
TTITLE6=The Auxiliary Theory
TTITLE7=Dysfunctional Inscapes
TTITLE8=Compelled Misogyny
TTITLE9=Anomaly of a Tortured Mind
TTITLE10=Hubris...
TTITLE11=Evasive Cross Currents
EXTD=
EXTT0=
EXTT1=
EXTT2=
EXTT3=
EXTT4=
EXTT5=
EXTT6=
EXTT7=
EXTT8=
EXTT9=
EXTT10=
EXTT11=
PLAYORDER=
